<svg version="1.2" xmlns="http://www.w3.org/2000/svg" viewBox="0 0 848 680" width="848" height="680">
	<title>شعار تمم بعد التعديلات -ai</title>
	<style>
		.s0 { fill: #1e4487 } 
		.s1 { fill: #7cc24d } 
	</style>
	<g id="Layer 1">
		<g id="&lt;Group&gt;">
			<path id="&lt;Path&gt;" class="s0" d="m213.9 497.7q0 5.6 3.8 9.6 3.7 3.7 9.7 3.9c0.2 0 0.4 0.1 0.4 0.4v4.9c0 0.2-0.2 0.4-0.4 0.4q-8.6-0.1-14.1-5.6-5.5-5.6-5.5-13.6v-38.7c0-0.3 0.2-0.5 0.4-0.5h5.3c0.2 0 0.4 0.2 0.4 0.5v9.4q0.6-0.2 2.9-0.2h10.6c0.2 0 0.4 0.2 0.4 0.4v4.9c0 0.2-0.2 0.4-0.4 0.4h-10.6q-1.8 0-2.4 0.8-0.4 0.3-0.5 1z"/>
			<path id="&lt;Path&gt;" class="s0" d="m354.5 472.9q5.5 5.7 5.5 13.5v30.1c0 0.2-0.1 0.4-0.4 0.4h-5.2c-0.3 0-0.5-0.2-0.5-0.4v-30.1q0-5.6-3.7-9.5-4.2-4.3-10.2-3.8c-2.7 0.2-5.4 1.3-7.4 3.1q-4.4 4.1-4.4 10.2v30.1c0 0.2-0.2 0.4-0.5 0.4h-5.2c-0.3 0-0.4-0.2-0.4-0.4v-30.1q0-3.6-1.8-6.7-2-3.5-5.6-5.4c-1.7-0.8-3.6-1.2-5.5-1.3q-5.5 0-9.2 3.9-3.8 3.9-3.8 9.5v30.1c0 0.2-0.2 0.4-0.4 0.4h-5.3c-0.2 0-0.4-0.2-0.4-0.4v-30.1q0-7.8 5.5-13.5 5.6-5.6 13.5-5.6 7.9 0 13.5 5.6 2 2 2.5 3 0.6-1 2.5-3 5.5-5.6 13.5-5.6 7.9 0 13.4 5.6z"/>
			<path id="&lt;Path&gt;" class="s0" d="m436.6 472.9q5.5 5.7 5.5 13.5v30.1c0 0.2-0.2 0.4-0.5 0.4h-5.2c-0.3 0-0.5-0.2-0.5-0.4v-30.1q0-5.6-3.7-9.5-4.1-4.2-10.1-3.8c-2.8 0.2-5.5 1.3-7.5 3.2q-4.4 4.1-4.4 10.1v30.1c0 0.2-0.2 0.4-0.4 0.4h-5.3c-0.2 0-0.4-0.2-0.4-0.4v-30.1q0-3.6-1.8-6.7-2-3.5-5.6-5.4c-1.7-0.8-3.6-1.2-5.5-1.3q-5.5 0-9.2 3.9-3.8 3.9-3.8 9.5v30.1c0 0.2-0.2 0.4-0.4 0.4h-5.3c-0.2 0-0.4-0.2-0.4-0.4v-30.1q0-7.8 5.5-13.5 5.6-5.6 13.5-5.6 8 0 13.5 5.6 2 2 2.5 3 0.6-1 2.5-3 5.5-5.6 13.5-5.6 7.9 0 13.5 5.6z"/>
			<path id="&lt;Compound Path&gt;" fill-rule="evenodd" class="s0" d="m259 516.9q-7.8 0-13.2-4.1-5.9-4.4-5.9-10.8 0-6.3 5.9-10.7 5.4-4.1 13.2-4.1h10.9q1 0 1.4-0.5 0.6-0.5 0.6-1.8v-2.8q0-3.6-3.5-6.3-3.5-2.8-8.6-2.8c-2.2 0-3.2-5.7 0-5.7q7.5 0 12.7 4.1 5.5 4.4 5.5 10.7v20q0 6.3-5.7 10.7-5.6 4.1-13.3 4.1zm0-23.9q-5.5 0-9.4 2.9-3.5 2.6-3.5 6.1 0 3.6 3.5 6.3 3.9 2.9 9.4 2.9 5.6 0 9.5-2.9 3.4-2.7 3.4-6.2v-8.8c0-0.2-0.2-0.4-0.4-0.4z"/>
			<path id="&lt;Path&gt;" class="s0" d="m249.8 473.1h10.3c0.2 0 0.4-0.3 0.4-0.6l-1.2-4.9c-0.1-0.2-0.2-0.3-0.4-0.3h-9.1c-0.2 0-0.4 0.2-0.4 0.4v4.9c0 0.3 0.2 0.5 0.4 0.5z"/>
			<path id="&lt;Path&gt;" class="s0" d="m571.7 472.9q5.5 5.7 5.5 13.5v30.1c0 0.2-0.2 0.4-0.4 0.4h-5.3c-0.2 0-0.4-0.2-0.4-0.4v-30.1q0-5.6-3.7-9.5-4.1-4.2-10.1-3.8c-2.8 0.2-5.5 1.3-7.6 3.2q-4.4 4.1-4.4 10.1v30.1c0 0.2-0.1 0.4-0.4 0.4h-5.2c-0.3 0-0.5-0.2-0.5-0.4v-30.1q0-3.6-1.7-6.7-2.1-3.5-5.7-5.4c-1.7-0.8-3.6-1.2-5.5-1.3q-5.4 0-9.2 3.9-3.7 3.9-3.7 9.5v30.1c0 0.2-0.2 0.4-0.4 0.4h-5.3c-0.2 0-0.4-0.2-0.4-0.4v-30.1q0-7.8 5.5-13.5 5.6-5.6 13.5-5.6 7.9 0 13.4 5.6 2 2 2.5 3 0.6-1 2.5-3 5.6-5.6 13.6-5.6 7.9 0 13.4 5.6z"/>
			<path id="&lt;Compound Path&gt;" fill-rule="evenodd" class="s0" d="m603.5 537.7c-5.7 0-10.4-4.7-10.4-10.4 0-5.7 4.7-10.4 10.4-10.4 5.7 0 10.4 4.7 10.4 10.4 0 5.7-4.7 10.4-10.4 10.4zm0-19.3c-4.9 0-8.9 4-8.9 8.9 0 4.9 4 8.9 8.9 8.9 4.9 0 8.9-4 8.9-8.9 0-4.9-4-8.9-8.9-8.9z"/>
			<path id="&lt;Compound Path&gt;" fill-rule="evenodd" class="s0" d="m600.2 522.4c0.7-0.1 1.6-0.2 2.5-0.2 1.4 0 2.3 0.3 3 0.8 0.5 0.5 0.7 1.2 0.7 1.9 0 1.4-0.8 2.3-1.9 2.6v0.1c0.8 0.2 1.3 1 1.5 2 0.4 1.4 0.6 2.4 0.8 2.8h-1.3c-0.2-0.3-0.4-1.2-0.7-2.4-0.3-1.4-0.9-2-2-2h-1.3v4.4h-1.3zm1.3 4.6h1.4c1.4 0 2.2-0.8 2.2-1.9 0-1.3-0.9-1.9-2.3-1.9-0.6 0-1.1 0-1.3 0.1z"/>
			<path id="&lt;Compound Path&gt;" fill-rule="evenodd" class="s0" d="m684.1 278.9v49.4c0 41.4-33.5 74.9-74.9 74.9h-67.9c-0.2 0-0.4-0.1-0.4-0.4v-18.2c0-0.4-0.4-0.6-0.7-0.3-13.1 11.8-30.5 18.9-49.5 18.9h-144c-0.2 0-0.4-0.1-0.4-0.4v-17.2c0-0.4-0.4-0.6-0.7-0.3-13 11.2-29.9 17.9-48.3 17.9h-134.2c-20 0-36.2 16.2-36.2 36.2v67.9c0 0.2-0.2 0.4-0.4 0.4h-38c-0.2 0-0.4-0.2-0.4-0.4v-67.9c0-41.4 33.6-74.9 75-74.9h53c0.3 0 0.5-0.4 0.3-0.6-5.5-10.4-8.6-22.2-8.6-34.8v-14.9c0-41.2 33.4-74.5 74.5-74.5h14.5c41.2 0 74.6 33.3 74.6 74.5v14.9c0 12.6-3.1 24.4-8.6 34.8-0.2 0.2 0 0.6 0.3 0.6h46.4c0.3 0 0.5-0.4 0.4-0.6-5.5-10.4-8.6-22.2-8.6-34.8v-14.9c0-41.2 33.3-74.5 74.5-74.5h14.5c41.2 0 74.5 33.3 74.5 74.5v14.9c0 12.6-3.1 24.4-8.6 34.8-0.1 0.2 0 0.6 0.4 0.6h52.6c20 0 36.2-16.2 36.2-36.2v-49.4c0-0.3 0.1-0.4 0.4-0.4h37.9c0.2 0 0.4 0.1 0.4 0.4zm-351.5 35.3c0-19.7-16-35.7-35.8-35.7h-14.5c-19.7 0-35.7 16-35.7 35.7v14.5c0 19.8 16 35.8 35.7 35.8h14.6c19.7 0 35.7-16 35.7-35.8zm193.4 0c0-19.7-16-35.7-35.7-35.7h-14.5c-19.7 0-35.8 16-35.8 35.7v14.5c0 19.8 16 35.8 35.8 35.8h14.5c19.7 0 35.7-16 35.7-35.8z"/>
			<g id="&lt;Group&gt;">
				<path id="&lt;Compound Path&gt;" class="s0" d="m446.2 194.1q1.1 5.6-0.5 10.2-2 5.5-7.1 6.5-3.8 0.7-6.7-0.9 0.1 3.5-2.6 6.6-2.6 3.1-6.1 3.7-3.8 0.7-6.8-2.4-2.5-2.7-3.2-6.7-0.6-3.1 0.3-10.4l2.2-0.8q2 10.9 5.9 10.2 5.7-1 5.9-17.6l1.7-0.9q3.9 9.3 7.5 8.6 6.6-1.2 3.9-15.7l2.1-1.4q2.5 5.1 3.5 11z"/>
			</g>
			<g id="&lt;Group&gt;">
				<path id="&lt;Path&gt;" class="s1" d="m610.6 200.5q2.3 0 4.6-0.1c26.4-1.2 50.7-12.5 68.6-32 0.2-0.1 0.2-0.4 0-0.6l-28.9-26.4c-0.2-0.1-0.4-0.1-0.6 0.1-10.7 11.5-25.2 18.3-40.9 19-15.8 0.7-30.8-4.7-42.5-15.3-0.2-0.1-0.4-0.1-0.6 0.1l-26.4 28.9c-0.2 0.1-0.2 0.4 0 0.6 18.5 16.7 41.9 25.7 66.7 25.7z"/>
			</g>
			<path id="&lt;Compound Path&gt;" fill-rule="evenodd" class="s0" d="m498.5 492.4q0 1.3-0.8 2.1-0.8 0.8-2.1 0.8h-40.2q1.1 6.8 6.3 11.3 5.2 4.5 12.2 4.5h7c0.4 0 0.7 0.3 0.7 0.7v4.5c0 0.3-0.3 0.6-0.7 0.6h-7q-10.2 0-17.4-7.1-7.2-7.2-7.2-17.4 0-10.3 7.3-17.4 7.3-7.2 17.3-7.2 10.1 0 17.4 7.2 7.2 7.3 7.2 17.4zm-5.9-2.3q-0.9-7.1-6.2-11.9-5.4-4.8-12.5-4.8-7.2 0-12.5 4.8-5.3 4.8-6.2 11.9z"/>
		</g>
	</g>
</svg>